<svg width="56" height="56" viewBox="0 0 56 56" fill="none" xmlns="http://www.w3.org/2000/svg">
<rect width="56" height="56" rx="6" fill="#246EE9"/>
<path d="M18.7987 14C20.0665 14 21.238 14.0962 22.3133 14.3849C23.3858 14.5773 24.2686 14.9787 25.0523 15.4597C25.8388 15.9436 26.4191 16.6308 26.8151 17.5133C27.2001 18.393 27.4091 19.4678 27.4091 20.6389C27.4091 22.0024 27.1176 23.1735 26.4301 24.0532C25.8388 24.9329 24.8736 25.7191 23.6883 26.2992C25.3548 26.783 26.6226 27.6627 27.3954 28.8338C28.1681 30.0049 28.6631 31.4646 28.6631 33.1305C28.6631 34.494 28.3744 35.6651 27.8794 36.6438C27.3856 37.6288 26.6446 38.469 25.7288 39.0822C24.8488 39.6732 23.7736 40.1543 22.602 40.4457C21.4544 40.7487 20.2743 40.9111 19.0875 40.9295L6 40.9488V14H18.7987ZM18.015 24.9357C19.0875 24.9357 19.9675 24.647 20.6467 24.1522C21.3233 23.6574 21.623 22.7859 21.623 21.7138C21.623 21.12 21.5268 20.5427 21.3343 20.1551C21.1259 19.7622 20.8236 19.427 20.4542 19.1792C20.0553 18.9617 19.6289 18.799 19.1865 18.6954C18.7025 18.5991 18.2075 18.5991 17.6272 18.5991H11.9676V24.9494C11.9676 24.9357 18.015 24.9357 18.015 24.9357ZM18.3037 36.4624C18.895 36.4624 19.4752 36.3661 19.9702 36.2699C20.4542 36.1737 20.9493 35.9785 21.3343 35.6761C21.7193 35.3737 22.0218 35.0851 22.3133 34.604C22.5058 34.1202 22.6983 33.5291 22.6983 32.8419C22.6983 31.4784 22.3133 30.4997 21.5268 29.8124C20.743 29.2214 19.6677 28.9328 18.4 28.9328H11.9676V36.4486H18.3065L18.3037 36.4624ZM37.1635 36.3661C37.95 37.1496 39.1188 37.5372 40.6781 37.5372C41.7506 37.5372 42.7296 37.2458 43.5161 36.751C44.2999 36.16 44.7812 35.5799 44.9737 34.9916H49.7587C48.9722 37.3311 47.8007 38.997 46.2442 40.0718C44.6876 41.0477 42.8259 41.6278 40.5791 41.6278C39.1424 41.6342 37.7175 41.3683 36.3798 40.8443C35.1758 40.3969 34.1016 39.6583 33.253 38.6946C32.3478 37.7959 31.6757 36.6899 31.2949 35.4727C30.8137 34.2054 30.6074 32.8419 30.6074 31.2722C30.6074 29.8124 30.7999 28.4352 31.2949 27.1679C31.7899 25.9033 32.4664 24.8257 33.3492 23.8498C34.2292 22.9701 35.3045 22.1839 36.476 21.7C37.7823 21.1801 39.1758 20.9142 40.5818 20.9166C42.2484 20.9166 43.7086 21.2052 44.9764 21.8925C46.2414 22.5797 47.2232 23.355 48.007 24.5261C48.7907 25.5982 49.371 26.8655 49.7697 28.2317C49.9622 29.5953 50.0585 30.9698 49.9622 32.5285H35.7995C35.7995 34.1229 36.377 35.5799 37.1635 36.3661ZM43.3236 26.1067C42.6361 25.4195 41.5581 25.0319 40.2903 25.0319C39.4103 25.0319 38.7338 25.2243 38.1425 25.5157C37.5513 25.8044 37.1635 26.203 36.7785 26.5878C36.4191 26.9651 36.1798 27.4407 36.091 27.9541C35.992 28.4352 35.8985 28.8338 35.8985 29.2187H44.6876C44.4951 27.7727 44.0029 26.794 43.3236 26.1067ZM34.7242 15.8583H45.6639V18.4892H34.7242V15.8583Z" fill="white"/>
</svg>
