<svg width="20" height="18" viewBox="0 0 20 18" fill="none" xmlns="http://www.w3.org/2000/svg">
<path fill-rule="evenodd" clip-rule="evenodd" d="M10.3837 1.80765C8.37883 1.72621 6.41959 2.29709 4.87071 3.39795C3.32366 4.49752 2.29973 6.04306 1.95821 7.73341C1.61716 9.42146 1.97315 11.1689 2.9771 12.6564C3.13251 12.8867 3.17218 13.175 3.08467 13.438L2.269 15.8895L5.46153 15.209C5.6615 15.1664 5.87014 15.1917 6.05374 15.281C7.80268 16.1317 9.84809 16.3908 11.8044 16.0025C13.7604 15.6143 15.4707 14.6106 16.6297 13.2019C17.7862 11.7963 18.3187 10.0813 18.1518 8.37436C17.9848 6.66623 17.1252 5.04967 15.7024 3.83382C14.2774 2.61612 12.3885 1.88908 10.3837 1.80765ZM3.81036 1.93576C5.70265 0.590817 8.06486 -0.0880585 10.4582 0.00916106C12.8517 0.106382 15.1386 0.974258 16.8904 2.4712C18.6443 3.96998 19.7466 6.00303 19.9615 8.20093C20.1765 10.4 19.485 12.5817 18.0394 14.3387C16.5962 16.0928 14.5031 17.3027 12.1618 17.7674C9.92743 18.2109 7.59062 17.9517 5.54336 17.0328L1.10046 17.9798C0.781886 18.0477 0.450971 17.9416 0.233092 17.7017C0.015213 17.4618 -0.0562982 17.1248 0.0456536 16.8184L1.22365 13.2779C0.143424 11.4866 -0.234061 9.40673 0.175348 7.38037C0.613472 5.21188 1.91625 3.282 3.81036 1.93576Z" fill="black"/>
</svg>
