<svg width="22" height="20" viewBox="0 0 22 20" fill="none" xmlns="http://www.w3.org/2000/svg">
<path d="M2.44842 17.6394C2.44281 17.6564 2.44674 17.6751 2.45873 17.6884C2.47071 17.7018 2.48891 17.7077 2.50643 17.7039L6.01822 16.9478C6.22719 16.9028 6.44522 16.9296 6.63708 17.0238C8.57099 17.9739 10.8322 18.2631 12.9947 17.8296C15.1569 17.3961 17.0488 16.2751 18.3315 14.7004C19.6116 13.1288 20.2017 11.2103 20.0168 9.30003C19.8317 7.38852 18.8796 5.58076 17.3053 4.22195C15.7288 2.8612 13.6401 2.04946 11.4241 1.95854C9.20809 1.86761 7.04185 2.50493 5.32864 3.73489C3.61732 4.96349 2.48334 6.69144 2.10501 8.58288C1.72717 10.4719 2.12174 12.4269 3.23325 14.0905C3.39565 14.3335 3.4371 14.6378 3.34565 14.9155L2.44842 17.6394ZM6.11836 18.8798C6.1086 18.8754 6.09767 18.8742 6.08719 18.8764L1.19998 19.9287C0.867074 20.0004 0.521267 19.8884 0.293583 19.6352C0.0658986 19.3819 -0.00883077 19.0262 0.097709 18.7028L1.39351 14.7689C1.39805 14.7551 1.39638 14.7401 1.38895 14.7276C0.20688 12.7477 -0.205941 10.4493 0.241912 8.21023C0.721191 5.81408 2.14658 3.68043 4.22056 2.19146C6.29264 0.703861 8.88 -0.0474466 11.502 0.0601369C14.1241 0.167722 16.6288 1.12812 18.5468 2.78363C20.4671 4.44108 21.6728 6.68847 21.9079 9.11697C22.1431 11.5468 21.3869 13.9578 19.8046 15.9004C18.2249 17.8398 15.9331 19.1783 13.3682 19.6925C10.9205 20.1833 8.36065 19.8964 6.11836 18.8798Z" fill="url(#paint0_radial_203_54)" stroke="url(#paint1_linear_203_54)" stroke-width="0.1" stroke-linecap="round" stroke-linejoin="round"/>
<defs>
<radialGradient id="paint0_radial_203_54" cx="0" cy="0" r="1" gradientUnits="userSpaceOnUse" gradientTransform="rotate(42.2737) scale(29.7322 37.922)">
<stop stop-color="#E2E2E2" stop-opacity="0.5"/>
<stop offset="1" stop-color="white" stop-opacity="0"/>
</radialGradient>
<linearGradient id="paint1_linear_203_54" x1="0" y1="0" x2="24.1239" y2="16.9832" gradientUnits="userSpaceOnUse">
<stop stop-color="white" stop-opacity="0.2"/>
<stop offset="1" stop-color="white" stop-opacity="0"/>
</linearGradient>
</defs>
</svg>
