<svg width="358" height="28" viewBox="0 0 358 28" fill="none" xmlns="http://www.w3.org/2000/svg">
<path d="M0 21.3322V0H3.60657V9.01719L3.10925 8.48101C3.45851 7.56045 4.03367 6.86091 4.83281 6.38238C5.63195 5.90384 6.56586 5.66361 7.63265 5.66361C8.7355 5.66361 9.71497 5.90769 10.5692 6.39583C11.4234 6.88398 12.0896 7.56621 12.568 8.43872C13.0463 9.31315 13.2855 10.3221 13.2855 11.4675V21.3322H9.67891V12.3727C9.67891 11.6981 9.54983 11.1177 9.29167 10.6315C9.03352 10.1453 8.67856 9.77054 8.22868 9.50725C7.77691 9.24589 7.24921 9.11328 6.64179 9.11328C6.05335 9.11328 5.52755 9.24396 5.06819 9.50725C4.60882 9.77054 4.24816 10.1434 3.99191 10.6315C3.73375 11.1177 3.60468 11.6981 3.60468 12.3727V21.3322H0Z" fill="black"/>
<path d="M20.9639 21.6686C19.9104 21.6686 18.9897 21.4899 18.2039 21.1343C17.418 20.7788 16.8125 20.2676 16.3873 19.6046C15.9621 18.9396 15.7495 18.167 15.7495 17.2868C15.7495 16.4451 15.9393 15.6898 16.319 15.0249C16.6986 14.3599 17.2757 13.8026 18.052 13.3529C18.8284 12.9032 19.8098 12.5861 20.9923 12.3977L25.8157 11.5829V14.3926L21.6852 15.1517C20.9639 15.2824 20.4267 15.513 20.0755 15.8397C19.7243 16.1683 19.5478 16.6027 19.5478 17.1465C19.5478 17.6712 19.7471 18.0882 20.1438 18.3957C20.5406 18.7051 21.036 18.8589 21.6282 18.8589C22.3856 18.8589 23.0576 18.6955 23.6403 18.3669C24.2231 18.0402 24.671 17.5847 24.9861 17.0043C25.3012 16.4239 25.4341 15.1229 25.4341 15.1229V11.162C25.4341 10.5067 25.1873 9.95894 24.6957 9.51884C24.2041 9.07874 23.5473 8.85965 22.7292 8.85965C21.9642 8.85965 21.2847 9.0749 20.6943 9.50539C20.1021 9.93588 19.6693 10.4894 19.3959 11.162L16.4727 9.70141C16.7631 8.89616 17.2244 8.19855 17.8527 7.60855C18.481 7.01855 19.2232 6.55538 20.0793 6.21906C20.9354 5.88274 21.8636 5.71362 22.8659 5.71362C24.0864 5.71362 25.1608 5.94232 26.089 6.40164C27.0172 6.86095 27.7423 7.50285 28.2605 8.32539C28.7787 9.14985 29.0388 10.0954 29.0388 11.162V21.3323H25.622V18.7205L26.4534 18.6917C26.0643 19.3278 25.5974 19.8717 25.0526 20.3214C24.5059 20.7711 23.8966 21.1074 23.2208 21.3323C22.5508 21.5571 21.7972 21.6686 20.9639 21.6686Z" fill="black"/>
<path d="M30.2838 27.4744C30.0408 27.4744 29.7884 27.461 29.5264 27.4321C29.2644 27.4033 29.0405 27.3706 28.8525 27.3341V24.1324C29.198 24.1881 29.5454 24.2169 29.8909 24.2169C30.7185 24.2169 31.3525 24.0344 31.7947 23.6692C32.237 23.3041 32.4591 22.7467 32.4591 21.9972V5.95769H36.0657V21.9972C36.0657 23.158 35.8322 24.1458 35.3634 24.9607C34.8964 25.7755 34.2263 26.3982 33.357 26.8287C32.4876 27.2592 31.4626 27.4744 30.2838 27.4744ZM32.4591 4.22805V0.384399H36.0657V4.22805H32.4591Z" fill="black"/>
<path d="M46.5608 21.6686C45.1334 21.6686 43.854 21.3169 42.7246 20.6154C41.5951 19.9139 40.7049 18.953 40.0538 17.7365C39.4027 16.52 39.0781 15.1709 39.0781 13.6911C39.0781 12.194 39.4084 10.8448 40.0671 9.64563C40.7258 8.44833 41.616 7.49319 42.7378 6.7802C43.8578 6.06912 45.1239 5.71358 46.5323 5.71358C47.6523 5.71358 48.6507 5.94228 49.5277 6.40159C50.4047 6.86091 51.0956 7.5028 51.6024 8.32534L51.0595 9.08446V0H54.6661V21.3322H51.2494V18.3822L51.629 19.1125C51.1222 19.9543 50.418 20.5923 49.5144 21.0228C48.6128 21.4533 47.6276 21.6686 46.5608 21.6686ZM46.8759 18.2977C47.6902 18.2977 48.4154 18.1017 49.0532 17.7077C49.6909 17.3137 50.1902 16.7717 50.5508 16.078C50.9115 15.3861 51.0918 14.5886 51.0918 13.6911C51.0918 12.8109 50.9115 12.0249 50.5508 11.3311C50.1902 10.6392 49.6909 10.0953 49.0532 9.70136C48.4154 9.30739 47.6884 9.11136 46.8759 9.11136C46.0616 9.11136 45.3308 9.30739 44.6835 9.70136C44.0362 10.0953 43.5313 10.6373 43.1706 11.3311C42.81 12.0249 42.6297 12.8109 42.6297 13.6911C42.6297 14.5905 42.81 15.3861 43.1706 16.078C43.5313 16.7717 44.0343 17.3137 44.6835 17.7077C45.3327 18.1017 46.0616 18.2977 46.8759 18.2977Z" fill="black"/>
<path d="M63.5593 21.6705C62.3862 21.6705 61.3783 21.4072 60.5355 20.8787C59.6927 20.3522 59.0416 19.6161 58.5841 18.6744C58.1248 17.7327 57.897 16.6296 57.897 15.367V5.9577H61.5035V15.0018C61.5035 15.6379 61.6269 16.1953 61.8756 16.6738C62.1243 17.1523 62.483 17.5271 62.9519 17.7981C63.4207 18.069 63.9503 18.2055 64.5388 18.2055C65.1272 18.2055 65.653 18.069 66.1124 17.7981C66.5717 17.5271 66.9305 17.1485 67.1886 16.6603C67.4468 16.1741 67.5759 15.5937 67.5759 14.9192V5.9577H71.1825V21.3323H67.7657V18.3073L68.0409 18.8435C67.6917 19.7852 67.1241 20.4925 66.3364 20.9633C65.5486 21.4361 64.6223 21.6705 63.5593 21.6705Z" fill="black"/>
<path d="M74.5991 21.3322V0H78.2057V13.9563L76.839 13.5316L83.8338 5.95765H88.287L82.7955 12.1478L88.3971 21.3322H84.2989L79.4357 13.3624L81.5674 12.9108L77.0858 17.9133L78.2057 15.6244V21.3322H74.5991Z" fill="black"/>
<path d="M90.5439 21.3323V5.95769H93.9607V9.51883L93.5716 8.95382C93.8487 7.82378 94.4049 6.98586 95.2382 6.43814C96.0715 5.89235 97.0529 5.61945 98.1842 5.61945C99.4256 5.61945 100.519 5.95 101.462 6.60919C102.408 7.26837 103.019 8.13511 103.296 9.20941L102.267 9.29397C102.73 8.06977 103.425 7.15114 104.351 6.53808C105.278 5.92502 106.343 5.61945 107.546 5.61945C108.62 5.61945 109.579 5.86352 110.422 6.35358C111.265 6.84365 111.927 7.52589 112.409 8.40224C112.891 9.27859 113.132 10.2914 113.132 11.4407V21.3323H109.526V12.3727C109.526 11.6982 109.404 11.1178 109.161 10.6316C108.918 10.1453 108.577 9.77058 108.138 9.50729C107.7 9.24592 107.182 9.11332 106.584 9.11332C106.005 9.11332 105.49 9.244 105.042 9.50729C104.594 9.77058 104.249 10.1434 104.006 10.6316C103.763 11.1178 103.642 11.6982 103.642 12.3727V21.3323H100.035V12.3727C100.035 11.6982 99.9134 11.1178 99.6705 10.6316C99.4275 10.1453 99.0858 9.77058 98.6473 9.50729C98.2089 9.24592 97.6907 9.11332 97.0927 9.11332C96.5138 9.11332 95.9994 9.244 95.5514 9.50729C95.1034 9.77058 94.7579 10.1434 94.515 10.6316C94.272 11.1178 94.1505 11.6982 94.1505 12.3727V21.3323H90.5439Z" fill="black"/>
<path d="M120.784 21.6686C119.731 21.6686 118.81 21.4899 118.024 21.1343C117.238 20.7788 116.633 20.2676 116.208 19.6046C115.782 18.9396 115.57 18.167 115.57 17.2868C115.57 16.4451 115.76 15.6898 116.139 15.0249C116.519 14.3599 117.096 13.8026 117.872 13.3529C118.649 12.9032 119.63 12.5861 120.813 12.3977L125.661 11.5829V14.3926L121.507 15.1517C120.786 15.2824 120.249 15.513 119.898 15.8397C119.547 16.1683 119.37 16.6027 119.37 17.1465C119.37 17.6712 119.569 18.0882 119.966 18.3957C120.363 18.7051 120.858 18.8589 121.45 18.8589C122.208 18.8589 122.88 18.6955 123.463 18.3669C124.045 18.0402 124.493 17.5847 124.808 17.0043C125.123 16.4239 125.281 15.1229 125.281 15.1229V11.162C125.281 10.5067 125.034 9.95894 124.543 9.51884C124.051 9.07874 123.394 8.85965 122.576 8.85965C121.811 8.85965 121.132 9.0749 120.541 9.50539C119.949 9.93588 119.516 10.4894 119.243 11.162L116.32 9.70141C116.61 8.89616 117.071 8.19855 117.7 7.60855C118.328 7.01855 119.07 6.55538 119.926 6.21906C120.782 5.88274 121.71 5.71362 122.713 5.71362C123.933 5.71362 125.008 5.94232 125.936 6.40164C126.864 6.86095 127.589 7.50285 128.107 8.32539C128.626 9.14985 128.886 10.0954 128.886 11.162V21.3323H125.469V18.7205L126.276 18.6917C125.887 19.3278 125.42 19.8717 124.875 20.3214C124.328 20.7711 123.719 21.1074 123.043 21.3323C122.371 21.5571 121.617 21.6686 120.784 21.6686Z" fill="black"/>
<path d="M132.304 21.3323V5.95767H135.721V9.50344L135.446 8.99992C135.795 7.86413 136.342 7.07233 137.086 6.62646C137.83 6.1806 138.726 5.95575 139.774 5.95575H140.657V9.22285H139.299C138.278 9.22285 137.46 9.53995 136.841 10.1742C136.222 10.8084 135.913 11.702 135.913 12.8589V21.3323H132.304Z" fill="black"/>
<path d="M149.942 21.6686C148.426 21.6686 147.076 21.3169 145.892 20.6154C144.707 19.914 143.769 18.9588 143.077 17.75C142.384 16.5412 142.036 15.1805 142.036 13.6623C142.036 12.146 142.378 10.7872 143.063 9.58995C143.747 8.39265 144.686 7.44519 145.878 6.75334C147.07 6.06148 148.426 5.71362 149.942 5.71362C151.015 5.71362 152.013 5.90581 152.94 6.29017C153.864 6.67453 154.663 7.20304 155.339 7.8776C156.015 8.55216 156.499 9.33819 156.795 10.2376L153.604 11.6694C153.327 10.8833 152.86 10.2607 152.203 9.80134C151.546 9.34203 150.793 9.11333 149.942 9.11333C149.147 9.11333 148.439 9.30551 147.82 9.68988C147.199 10.0742 146.715 10.6162 146.364 11.3196C146.013 12.0211 145.837 12.8128 145.837 13.693C145.837 14.5925 146.011 15.3881 146.364 16.0799C146.715 16.7737 147.201 17.3157 147.82 17.7097C148.439 18.1036 149.147 18.2996 149.942 18.2996C150.812 18.2996 151.565 18.0652 152.203 17.5982C152.841 17.1312 153.308 16.5027 153.604 15.7167L156.795 17.1773C156.499 18.0383 156.018 18.8109 155.352 19.495C154.686 20.1792 153.891 20.7115 152.966 21.0959C152.042 21.4764 151.034 21.6686 149.942 21.6686Z" fill="black"/>
<path d="M166.764 21.8204C165.185 21.8204 163.799 21.4591 162.605 20.7365C161.411 20.0139 160.487 19.0337 159.828 17.7961C159.169 16.5584 158.841 15.1901 158.841 13.6853C158.841 12.1248 159.179 10.7411 159.857 9.53224C160.532 8.32341 161.445 7.36827 162.592 6.66296C163.738 5.95957 165.035 5.60596 166.483 5.60596C167.687 5.60596 168.742 5.80583 169.655 6.20556C170.566 6.6053 171.343 7.15688 171.98 7.86026C172.618 8.56365 173.108 9.36889 173.446 10.2721C173.784 11.1754 173.953 12.1517 173.953 13.1972C173.953 13.4835 173.939 13.7641 173.911 14.0389C173.882 14.3157 173.831 14.5674 173.755 14.7961H161.916V11.9134H171.671L169.894 13.2548C170.082 12.3804 170.05 11.6001 169.796 10.914C169.541 10.2279 169.127 9.68599 168.556 9.28625C167.983 8.88651 167.292 8.68665 166.483 8.68665C165.713 8.68665 165.027 8.88651 164.426 9.28625C163.824 9.68599 163.368 10.2568 163.059 10.9986C162.749 11.7404 162.632 12.6456 162.706 13.7103C162.63 14.6616 162.757 15.5033 163.087 16.2356C163.416 16.9678 163.905 17.5347 164.553 17.9345C165.202 18.3342 165.948 18.5341 166.795 18.5341C167.641 18.5341 168.359 18.3534 168.951 17.9921C169.543 17.6308 170.008 17.1465 170.346 16.5373L173.334 18.0209C173.034 18.7628 172.563 19.42 171.923 19.9908C171.284 20.5616 170.523 21.0094 169.64 21.3322C168.757 21.657 167.799 21.8204 166.764 21.8204Z" fill="black"/>
<path d="M176.532 21.3322V0H180.139V21.3322H176.532Z" fill="black"/>
<path d="M183.556 4.22805V0.384399H187.162V4.22805H183.556ZM183.556 21.3323V5.95769H187.162V21.3323H183.556Z" fill="black"/>
<path d="M202.266 27.4225C200.567 27.4225 199.003 27.1323 197.576 26.5519C196.148 25.9715 194.899 25.147 193.834 24.0804C192.768 23.0138 191.94 21.7435 191.353 20.2752C190.765 18.805 190.473 17.1811 190.473 15.4015C190.473 13.6411 190.767 12.0268 191.353 10.5566C191.94 9.08637 192.768 7.82181 193.834 6.76481C194.901 5.70781 196.148 4.88335 197.576 4.29335C199.003 3.70335 200.558 3.4093 202.24 3.4093C203.938 3.4093 205.484 3.7091 206.877 4.30871C208.268 4.90832 209.466 5.74047 210.47 6.80901C211.474 7.87562 212.247 9.14018 212.788 10.6008C213.331 12.0613 213.602 13.6622 213.602 15.4034C213.602 16.6026 213.399 17.6462 212.993 18.536C212.587 19.4258 212.025 20.108 211.311 20.5866C210.597 21.0632 209.76 21.3034 208.804 21.3034C208.189 21.3034 207.579 21.1766 206.974 20.9248C206.368 20.6711 205.861 20.2829 205.455 19.7583C205.049 19.2336 204.827 18.5417 204.791 17.6788L205.415 19.1106C205.252 19.5603 204.963 19.9485 204.548 20.2771C204.132 20.6058 203.648 20.8575 203.098 21.0363C202.545 21.215 201.972 21.3034 201.376 21.3034C200.328 21.3034 199.37 21.0459 198.502 20.5308C197.635 20.0158 196.947 19.3047 196.441 18.3957C195.934 17.4867 195.681 16.4623 195.681 15.3208C195.681 14.1965 195.934 13.1683 196.441 12.2305C196.946 11.2945 197.635 10.545 198.502 9.98386C199.37 9.42269 200.355 9.1421 201.458 9.1421C202.344 9.1421 203.139 9.31507 203.844 9.661C204.548 10.0069 205.028 10.472 205.28 11.0505L205.009 12.0056V9.41692H207.477V16.5238C207.477 17.1984 207.604 17.7134 207.856 18.069C208.109 18.4245 208.452 18.6032 208.887 18.6032C209.466 18.6032 209.905 18.3457 210.203 17.8307C210.501 17.3156 210.651 16.4585 210.651 15.2612C210.651 13.9697 210.464 12.7744 210.094 11.6789C209.724 10.5835 209.181 9.62832 208.468 8.81347C207.754 7.99861 206.881 7.36634 205.85 6.91663C204.819 6.46692 203.627 6.24207 202.27 6.24207C200.951 6.24207 199.753 6.46692 198.677 6.91663C197.6 7.36634 196.67 8.00246 195.884 8.82692C195.099 9.65138 194.491 10.62 194.068 11.7346C193.643 12.8493 193.43 14.062 193.43 15.3727C193.43 16.7218 193.652 17.9613 194.094 19.0952C194.537 20.2291 195.156 21.2073 195.953 22.0299C196.748 22.8543 197.684 23.4904 198.758 23.9401C199.833 24.3898 201.004 24.6147 202.27 24.6147C203.12 24.6147 203.938 24.5071 204.724 24.2918C205.51 24.0766 206.23 23.7537 206.881 23.3232L208.128 25.7947C206.425 26.8786 204.472 27.4225 202.266 27.4225ZM201.628 18.6359C202.257 18.6359 202.807 18.486 203.28 18.1862C203.751 17.8864 204.126 17.479 204.404 16.9639C204.681 16.4489 204.819 15.8819 204.819 15.265C204.819 14.3099 204.519 13.5143 203.918 12.8781C203.316 12.242 202.562 11.923 201.657 11.923C201.046 11.9038 200.491 12.0345 199.992 12.317C199.493 12.5975 199.1 12.9915 198.813 13.497C198.527 14.0024 198.382 14.5828 198.382 15.2381C198.382 15.8742 198.525 16.4508 198.813 16.9658C199.1 17.4809 199.489 17.8883 199.979 18.1881C200.469 18.486 201.019 18.6359 201.628 18.6359Z" fill="black"/>
<path d="M223.498 27.4168C222.378 27.4168 221.341 27.2304 220.386 26.8556C219.432 26.4809 218.612 25.962 217.923 25.297C217.234 24.6321 216.734 23.8499 216.423 22.9524L219.781 21.6609C220.001 22.372 220.438 22.9486 221.089 23.3887C221.74 23.8288 222.533 24.0498 223.471 24.0498C224.206 24.0498 224.851 23.9095 225.411 23.6289C225.971 23.3483 226.411 22.9409 226.732 22.4066C227.053 21.8723 227.214 21.2324 227.214 20.4829V17.0005L227.865 17.8423C227.359 18.7609 226.685 19.4528 225.844 19.9217C225.003 20.3906 224.031 20.6231 222.926 20.6231C221.569 20.6231 220.348 20.2964 219.263 19.6392C218.177 18.9838 217.323 18.0844 216.698 16.9429C216.074 15.8013 215.762 14.5175 215.762 13.0954C215.762 11.654 216.074 10.3702 216.698 9.24788C217.323 8.12361 218.167 7.23957 219.236 6.59384C220.303 5.94811 221.516 5.62524 222.871 5.62524C223.974 5.62524 224.942 5.86355 225.775 6.34208C226.607 6.81869 227.303 7.50863 227.865 8.40612L227.404 9.33244V5.95772H230.821V20.479C230.821 21.8089 230.504 22.9966 229.872 24.0459C229.238 25.0952 228.376 25.9178 227.284 26.5174C226.191 27.117 224.929 27.4168 223.498 27.4168ZM223.38 17.3157C224.156 17.3157 224.836 17.1427 225.419 16.7968C226.001 16.4509 226.459 15.9685 226.793 15.3497C227.125 14.7308 227.292 14.0198 227.292 13.2145C227.292 12.4285 227.121 11.7251 226.78 11.1082C226.438 10.4894 225.975 10.0032 225.392 9.64762C224.809 9.29208 224.139 9.11335 223.38 9.11335C222.621 9.11335 221.937 9.29208 221.326 9.64762C220.717 10.0032 220.24 10.4894 219.897 11.1082C219.555 11.727 219.384 12.4285 219.384 13.2145C219.384 14.0005 219.555 14.7039 219.897 15.3208C220.238 15.9397 220.711 16.4259 221.311 16.7814C221.915 17.137 222.604 17.3157 223.38 17.3157Z" fill="black"/>
<path d="M234.238 21.3323V5.95769H237.654V9.51883L237.265 8.95382C237.542 7.82378 238.098 6.98586 238.932 6.43814C239.765 5.89235 240.746 5.61945 241.878 5.61945C243.119 5.61945 244.213 5.95 245.156 6.60919C246.101 7.26837 246.713 8.13511 246.99 9.20941L245.961 9.29397C246.424 8.06977 247.119 7.15114 248.045 6.53808C248.971 5.92502 250.036 5.61945 251.24 5.61945C252.314 5.61945 253.273 5.86352 254.115 6.35358C254.958 6.84365 255.621 7.52589 256.103 8.40224C256.585 9.27859 256.826 10.2914 256.826 11.4407V21.3323H253.22V12.3727C253.22 11.6982 253.098 11.1178 252.855 10.6316C252.612 10.1453 252.27 9.77058 251.832 9.50729C251.393 9.24592 250.875 9.11332 250.277 9.11332C249.698 9.11332 249.184 9.244 248.736 9.50729C248.288 9.77058 247.943 10.1434 247.7 10.6316C247.457 11.1178 247.335 11.6982 247.335 12.3727V21.3323H243.729V12.3727C243.729 11.6982 243.607 11.1178 243.364 10.6316C243.121 10.1453 242.779 9.77058 242.341 9.50729C241.902 9.24592 241.384 9.11332 240.786 9.11332C240.207 9.11332 239.693 9.244 239.245 9.50729C238.797 9.77058 238.452 10.1434 238.209 10.6316C237.966 11.1178 237.844 11.6982 237.844 12.3727V21.3323H234.238Z" fill="black"/>
<path d="M264.495 21.6686C263.441 21.6686 262.521 21.4899 261.735 21.1343C260.949 20.7788 260.344 20.2676 259.918 19.6046C259.493 18.9396 259.281 18.167 259.281 17.2868C259.281 16.4451 259.47 15.6898 259.85 15.0249C260.23 14.3599 260.807 13.8026 261.583 13.3529C262.359 12.9032 263.341 12.5861 264.523 12.3977L269.354 11.5829V14.3926L265.216 15.1517C264.495 15.2824 263.958 15.513 263.606 15.8397C263.255 16.1683 263.079 16.6027 263.079 17.1465C263.079 17.6712 263.278 18.0882 263.675 18.3957C264.072 18.7051 264.567 18.8589 265.159 18.8589C265.917 18.8589 266.589 18.6955 267.171 18.3669C267.754 18.0402 268.202 17.5847 268.517 17.0043C268.832 16.4239 268.973 15.1229 268.973 15.1229V11.162C268.973 10.5067 268.726 9.95894 268.234 9.51884C267.743 9.07874 267.086 8.85965 266.268 8.85965C265.503 8.85965 264.823 9.0749 264.233 9.50539C263.641 9.93588 263.208 10.4894 262.935 11.162L260.011 9.70141C260.302 8.89616 260.763 8.19855 261.391 7.60855C262.02 7.01855 262.762 6.55538 263.618 6.21906C264.474 5.88274 265.402 5.71362 266.404 5.71362C267.625 5.71362 268.699 5.94232 269.629 6.40164C270.558 6.86095 271.283 7.50285 271.801 8.32539C272.321 9.14985 272.579 10.0954 272.579 11.162V21.3323H269.163V18.7205L269.986 18.6917C269.597 19.3278 269.13 19.8717 268.585 20.3214C268.039 20.7711 267.429 21.1074 266.754 21.3323C266.082 21.5571 265.328 21.6686 264.495 21.6686Z" fill="black"/>
<path d="M275.998 4.22805V0.384399H279.604V4.22805H275.998ZM275.998 21.3323V5.95769H279.604V21.3323H275.998Z" fill="black"/>
<path d="M283.021 21.3322V0H286.628V21.3322H283.021Z" fill="black"/>
<path d="M291.753 21.3322V17.4886H295.36V21.3322H291.753Z" fill="black"/>
<path d="M307.747 21.6686C306.23 21.6686 304.881 21.3169 303.696 20.6154C302.512 19.914 301.574 18.9588 300.881 17.75C300.188 16.5412 299.841 15.1805 299.841 13.6623C299.841 12.146 300.183 10.7872 300.868 9.58995C301.551 8.39265 302.491 7.44519 303.683 6.75334C304.877 6.06148 306.23 5.71362 307.747 5.71362C308.82 5.71362 309.818 5.90581 310.744 6.29017C311.669 6.67453 312.468 7.20304 313.144 7.8776C313.819 8.55216 314.303 9.33819 314.6 10.2376L311.409 11.6694C311.132 10.8833 310.665 10.2607 310.008 9.80134C309.351 9.34203 308.597 9.11333 307.747 9.11333C306.952 9.11333 306.244 9.30551 305.625 9.68988C305.004 10.0742 304.52 10.6162 304.169 11.3196C303.818 12.0211 303.641 12.8128 303.641 13.693C303.641 14.5925 303.816 15.3881 304.169 16.0799C304.52 16.7737 305.006 17.3157 305.625 17.7097C306.244 18.1036 306.952 18.2996 307.747 18.2996C308.616 18.2996 309.37 18.0652 310.008 17.5982C310.646 17.1312 311.113 16.5027 311.409 15.7167L314.6 17.1773C314.303 18.0383 313.823 18.8109 313.157 19.495C312.491 20.1792 311.695 20.7115 310.771 21.0959C309.846 21.4764 308.839 21.6686 307.747 21.6686Z" fill="black"/>
<path d="M324.698 21.6686C323.236 21.6686 321.9 21.3227 320.689 20.6289C319.478 19.937 318.512 18.9915 317.79 17.7923C317.069 16.595 316.708 15.2266 316.708 13.6911C316.708 12.1556 317.069 10.7892 317.79 9.58995C318.512 8.39265 319.474 7.44519 320.676 6.75334C321.877 6.06148 323.219 5.71362 324.698 5.71362C326.196 5.71362 327.545 6.05956 328.749 6.75334C329.95 7.44711 330.909 8.38689 331.621 9.57649C332.333 10.7661 332.689 12.1383 332.689 13.6911C332.689 15.2266 332.329 16.5931 331.607 17.7923C330.886 18.9915 329.924 19.937 328.722 20.6289C327.519 21.3227 326.179 21.6686 324.698 21.6686ZM324.698 18.2977C325.529 18.2977 326.256 18.1017 326.875 17.7077C327.494 17.3138 327.986 16.766 328.346 16.0646C328.707 15.3631 328.887 14.5713 328.887 13.6911C328.887 12.8109 328.707 12.0249 328.346 11.3311C327.986 10.6393 327.496 10.0954 326.875 9.70141C326.255 9.30743 325.529 9.1114 324.698 9.1114C323.884 9.1114 323.162 9.30743 322.534 9.70141C321.906 10.0954 321.41 10.6373 321.05 11.3311C320.689 12.0249 320.509 12.8109 320.509 13.6911C320.509 14.5713 320.689 15.3631 321.05 16.0646C321.41 16.766 321.906 17.3138 322.534 17.7077C323.162 18.1017 323.884 18.2977 324.698 18.2977Z" fill="black"/>
<path d="M335.411 21.3323V5.95769H338.828V9.51883L338.439 8.95382C338.716 7.82378 339.272 6.98586 340.106 6.43814C340.939 5.89235 341.92 5.61945 343.052 5.61945C344.293 5.61945 345.386 5.95 346.33 6.60919C347.275 7.26837 347.886 8.13511 348.163 9.20941L347.135 9.29397C347.598 8.06977 348.293 7.15114 349.219 6.53808C350.145 5.92502 351.21 5.61945 352.414 5.61945C353.488 5.61945 354.446 5.86352 355.289 6.35358C356.132 6.84365 356.795 7.52589 357.277 8.40224C357.759 9.27859 358 10.2914 358 11.4407V21.3323H354.393V12.3727C354.393 11.6982 354.272 11.1178 354.029 10.6316C353.786 10.1453 353.444 9.77058 353.006 9.50729C352.567 9.24592 352.047 9.11332 351.451 9.11332C350.872 9.11332 350.358 9.244 349.91 9.50729C349.462 9.77058 349.116 10.1434 348.873 10.6316C348.63 11.1178 348.509 11.6982 348.509 12.3727V21.3323H344.902V12.3727C344.902 11.6982 344.781 11.1178 344.538 10.6316C344.295 10.1453 343.953 9.77058 343.515 9.50729C343.076 9.24592 342.558 9.11332 341.96 9.11332C341.381 9.11332 340.867 9.244 340.419 9.50729C339.971 9.77058 339.625 10.1434 339.382 10.6316C339.139 11.1178 339.018 11.6982 339.018 12.3727V21.3323H335.411Z" fill="black"/>
<path d="M25.6257 23.9839H0V27.1818H25.6257V23.9839Z" fill="black"/>
<path d="M187.162 24.1266H39.0801V27.3245H187.162V24.1266Z" fill="black"/>
<path d="M358 24.1266H234.238V27.3245H358V24.1266Z" fill="black"/>
</svg>
