<svg width="860" height="66" viewBox="0 0 860 66" fill="none" xmlns="http://www.w3.org/2000/svg">
<path d="M0 51.245V0H8.66384V21.6614L7.46914 20.3734C8.30816 18.162 9.68982 16.4815 11.6095 15.332C13.5293 14.1824 15.7727 13.6053 18.3354 13.6053C20.9847 13.6053 23.3376 14.1917 25.3896 15.3643C27.4416 16.5369 29.0421 18.1758 30.1912 20.2718C31.3403 22.3724 31.9148 24.7961 31.9148 27.5477V51.245H23.251V29.7221C23.251 28.1017 22.9409 26.7074 22.3208 25.5394C21.7006 24.3714 20.8479 23.4711 19.7672 22.8387C18.682 22.2108 17.4143 21.8922 15.9551 21.8922C14.5416 21.8922 13.2785 22.2062 12.175 22.8387C11.0715 23.4711 10.2051 24.3668 9.5895 25.5394C8.96935 26.7074 8.65928 28.1017 8.65928 29.7221V51.245H0Z" fill="black"/>
<path d="M50.3596 52.053C47.8288 52.053 45.6173 51.6237 43.7295 50.7696C41.8417 49.9155 40.387 48.6875 39.3656 47.0947C38.3442 45.4974 37.8335 43.6415 37.8335 41.527C37.8335 39.5049 38.2895 37.6906 39.2015 36.0932C40.1135 34.4958 41.4997 33.157 43.3647 32.0767C45.2297 30.9964 47.5872 30.2347 50.428 29.7822L62.0147 27.8248V34.5743L52.0924 36.3979C50.3596 36.7119 49.0691 37.2658 48.2255 38.0507C47.382 38.8401 46.9579 39.8835 46.9579 41.19C46.9579 42.4504 47.4367 43.4522 48.3897 44.1908C49.3427 44.9341 50.5329 45.3035 51.9556 45.3035C53.775 45.3035 55.3892 44.9111 56.7891 44.1216C58.189 43.3368 59.2651 42.2426 60.022 40.8484C60.779 39.4541 61.0982 36.3287 61.0982 36.3287V26.8137C61.0982 25.2394 60.5054 23.9237 59.3244 22.8665C58.1434 21.8092 56.5656 21.2829 54.6003 21.2829C52.7627 21.2829 51.1302 21.8 49.7121 22.8341C48.2894 23.8683 47.2497 25.1979 46.5931 26.8137L39.5708 23.305C40.2685 21.3706 41.3766 19.6948 42.8859 18.2775C44.3952 16.8602 46.1781 15.7475 48.2347 14.9396C50.2912 14.1317 52.521 13.7254 54.9286 13.7254C57.8606 13.7254 60.4416 14.2748 62.6714 15.3782C64.9011 16.4816 66.643 18.0236 67.8879 19.9995C69.1328 21.9801 69.7575 24.2515 69.7575 26.8137V51.2451H61.5496V44.9711L63.5469 44.9018C62.6121 46.4299 61.4903 47.7364 60.1816 48.8167C58.8684 49.897 57.4046 50.705 55.7813 51.2451C54.1717 51.7853 52.3614 52.053 50.3596 52.053Z" fill="black"/>
<path d="M72.7492 66C72.1655 66 71.5591 65.9677 70.9298 65.8984C70.3005 65.8292 69.7625 65.7507 69.311 65.663V57.9716C70.1409 58.1055 70.9754 58.1748 71.8053 58.1748C73.7934 58.1748 75.3164 57.7362 76.3789 56.859C77.4414 55.9818 77.9749 54.643 77.9749 52.8425V14.3118H86.6387V52.8425C86.6387 55.631 86.0778 58.0039 84.9515 59.9614C83.8298 61.9189 82.2202 63.4147 80.1317 64.4488C78.0433 65.4829 75.5809 66 72.7492 66ZM77.9749 10.1568V0.923431H86.6387V10.1568H77.9749Z" fill="black"/>
<path d="M111.85 52.053C108.421 52.053 105.348 51.2081 102.635 49.523C99.9214 47.8379 97.7829 45.5296 96.2188 42.6072C94.6548 39.6849 93.875 36.444 93.875 32.8892C93.875 29.2928 94.6684 26.0519 96.2507 23.1711C97.833 20.2949 99.9716 18.0004 102.667 16.2876C105.357 14.5795 108.398 13.7254 111.782 13.7254C114.472 13.7254 116.871 14.2747 118.977 15.3781C121.084 16.4815 122.744 18.0235 123.961 19.9994L122.657 21.823V0H131.321V51.245H123.113V44.1585L124.025 45.9128C122.808 47.9349 121.116 49.4676 118.945 50.5018C116.779 51.5359 114.413 52.053 111.85 52.053ZM112.607 43.9553C114.563 43.9553 116.305 43.4844 117.837 42.538C119.369 41.5916 120.569 40.2897 121.435 38.6231C122.302 36.961 122.735 35.0451 122.735 32.8892C122.735 30.7747 122.302 28.8865 121.435 27.2199C120.569 25.5579 119.369 24.2514 117.837 23.3049C116.305 22.3585 114.559 21.8876 112.607 21.8876C110.651 21.8876 108.895 22.3585 107.34 23.3049C105.785 24.2514 104.573 25.5533 103.706 27.2199C102.84 28.8865 102.407 30.7747 102.407 32.8892C102.407 35.0498 102.84 36.961 103.706 38.6231C104.573 40.2897 105.781 41.5916 107.34 42.538C108.9 43.4844 110.651 43.9553 112.607 43.9553Z" fill="black"/>
<path d="M152.684 52.0577C149.866 52.0577 147.445 51.4253 145.42 50.1557C143.396 48.8907 141.832 47.1225 140.733 44.8603C139.629 42.5982 139.082 39.9482 139.082 36.9151V14.3118H147.746V36.0379C147.746 37.566 148.042 38.9048 148.64 40.0544C149.237 41.2039 150.099 42.1042 151.225 42.7551C152.351 43.4061 153.624 43.7339 155.037 43.7339C156.451 43.7339 157.714 43.4061 158.817 42.7551C159.921 42.1042 160.783 41.1947 161.403 40.0221C162.023 38.8541 162.333 37.4598 162.333 35.8394V14.3118H170.997V51.2452H162.789V43.9786L163.45 45.2666C162.611 47.5288 161.248 49.2277 159.355 50.3588C157.463 51.4945 155.238 52.0577 152.684 52.0577Z" fill="black"/>
<path d="M179.205 51.245V0H187.868V33.5263L184.585 32.506L201.389 14.3117H212.086L198.894 29.182L212.351 51.245H202.506L190.823 32.0997L195.944 31.0148L185.178 43.032L187.868 37.5335V51.245H179.205Z" fill="black"/>
<path d="M217.508 51.2452V14.3118H225.716V22.8665L224.781 21.5092C225.447 18.7946 226.783 16.7817 228.784 15.466C230.786 14.1548 233.144 13.4993 235.861 13.4993C238.844 13.4993 241.47 14.2934 243.736 15.8769C246.007 17.4604 247.476 19.5425 248.141 22.1232L245.67 22.3263C246.782 19.3855 248.451 17.1788 250.677 15.7061C252.902 14.2333 255.46 13.4993 258.351 13.4993C260.932 13.4993 263.235 14.0856 265.259 15.2628C267.284 16.4401 268.875 18.079 270.033 20.1842C271.192 22.2894 271.771 24.7224 271.771 27.4832V51.2452H263.107V29.7223C263.107 28.1018 262.815 26.7076 262.231 25.5396C261.648 24.3715 260.827 23.4713 259.774 22.8388C258.72 22.2109 257.475 21.8924 256.039 21.8924C254.648 21.8924 253.413 22.2063 252.336 22.8388C251.26 23.4713 250.43 24.3669 249.847 25.5396C249.263 26.7076 248.971 28.1018 248.971 29.7223V51.2452H240.307V29.7223C240.307 28.1018 240.016 26.7076 239.432 25.5396C238.848 24.3715 238.027 23.4713 236.974 22.8388C235.921 22.2109 234.676 21.8924 233.24 21.8924C231.849 21.8924 230.613 22.2063 229.537 22.8388C228.461 23.4713 227.631 24.3669 227.047 25.5396C226.463 26.7076 226.172 28.1018 226.172 29.7223V51.2452H217.508Z" fill="black"/>
<path d="M290.152 52.053C287.621 52.053 285.41 51.6237 283.522 50.7696C281.634 49.9155 280.18 48.6875 279.158 47.0947C278.137 45.4974 277.626 43.6415 277.626 41.527C277.626 39.5049 278.082 37.6906 278.994 36.0932C279.906 34.4958 281.292 33.157 283.157 32.0767C285.022 30.9964 287.38 30.2347 290.22 29.7822L301.866 27.8248V34.5743L291.889 36.3979C290.157 36.7119 288.866 37.2658 288.023 38.0507C287.179 38.8401 286.755 39.8835 286.755 41.19C286.755 42.4504 287.234 43.4522 288.187 44.1908C289.14 44.9341 290.33 45.3035 291.753 45.3035C293.572 45.3035 295.186 44.9111 296.586 44.1216C297.986 43.3368 299.062 42.2426 299.819 40.8484C300.576 39.4541 300.954 36.3287 300.954 36.3287V26.8137C300.954 25.2394 300.362 23.9237 299.181 22.8665C298 21.8092 296.422 21.2829 294.457 21.2829C292.619 21.2829 290.987 21.8 289.568 22.8341C288.146 23.8683 287.106 25.1979 286.449 26.8137L279.427 23.305C280.125 21.3706 281.233 19.6948 282.742 18.2775C284.252 16.8602 286.034 15.7475 288.091 14.9396C290.147 14.1317 292.377 13.7254 294.785 13.7254C297.717 13.7254 300.298 14.2748 302.528 15.3782C304.757 16.4816 306.499 18.0236 307.744 19.9995C308.989 21.9801 309.614 24.2515 309.614 26.8137V51.2451H301.406V44.9711L303.344 44.9018C302.409 46.4299 301.287 47.7364 299.979 48.8167C298.665 49.897 297.202 50.705 295.578 51.2451C293.964 51.7853 292.154 52.053 290.152 52.053Z" fill="black"/>
<path d="M317.826 51.2451V14.3117H326.034V22.8295L325.373 21.6199C326.212 18.8914 327.525 16.9894 329.313 15.9183C331.1 14.8472 333.252 14.3071 335.769 14.3071H337.89V22.1554H334.629C332.176 22.1554 330.211 22.9172 328.724 24.4407C327.238 25.9642 326.495 28.1109 326.495 30.8901V51.2451H317.826Z" fill="black"/>
<path d="M360.197 52.053C356.553 52.053 353.311 51.2082 350.466 49.5231C347.62 47.838 345.368 45.5435 343.703 42.6396C342.039 39.7358 341.205 36.4672 341.205 32.82C341.205 29.1775 342.025 25.9135 343.671 23.0373C345.313 20.1611 347.57 17.8851 350.434 16.2231C353.297 14.5611 356.553 13.7254 360.197 13.7254C362.773 13.7254 365.172 14.1871 367.397 15.1104C369.617 16.0338 371.537 17.3034 373.16 18.9238C374.784 20.5443 375.947 22.4325 376.658 24.5931L368.993 28.0325C368.327 26.1443 367.205 24.6485 365.627 23.5451C364.05 22.4417 362.239 21.8923 360.197 21.8923C358.286 21.8923 356.585 22.354 355.099 23.2773C353.608 24.2007 352.445 25.5026 351.601 27.1923C350.758 28.8774 350.334 30.7794 350.334 32.8939C350.334 35.0545 350.753 36.9658 351.601 38.6278C352.445 40.2944 353.612 41.5963 355.099 42.5427C356.585 43.4891 358.286 43.96 360.197 43.96C362.285 43.96 364.095 43.3968 365.627 42.2749C367.16 41.1531 368.281 39.6434 368.993 37.7552L376.658 41.2639C375.947 43.3322 374.793 45.1881 373.192 46.8316C371.592 48.4751 369.681 49.7539 367.461 50.6773C365.24 51.5914 362.819 52.053 360.197 52.053Z" fill="black"/>
<path d="M400.607 52.4176C396.813 52.4176 393.484 51.5497 390.616 49.8138C387.748 48.078 385.527 45.7234 383.945 42.7503C382.363 39.7772 381.574 36.4901 381.574 32.8753C381.574 29.1265 382.385 25.8025 384.013 22.8986C385.637 19.9947 387.83 17.7002 390.584 16.0059C393.338 14.3162 396.453 13.4668 399.932 13.4668C402.823 13.4668 405.358 13.9469 407.552 14.9072C409.74 15.8674 411.605 17.1924 413.137 18.8821C414.67 20.5718 415.846 22.5062 416.658 24.676C417.469 26.8459 417.875 29.1911 417.875 31.7026C417.875 32.3905 417.843 33.0645 417.775 33.7247C417.707 34.3895 417.583 34.9943 417.401 35.5437H388.961V28.6187H412.394L408.126 31.8411C408.578 29.7405 408.5 27.8661 407.889 26.218C407.278 24.5698 406.284 23.268 404.911 22.3077C403.534 21.3474 401.874 20.8673 399.932 20.8673C398.081 20.8673 396.434 21.3474 394.989 22.3077C393.543 23.268 392.449 24.6391 391.706 26.4211C390.963 28.2032 390.68 30.3776 390.858 32.9353C390.675 35.2205 390.981 37.2426 391.774 39.0016C392.563 40.7605 393.74 42.1224 395.295 43.0827C396.854 44.043 398.646 44.5231 400.68 44.5231C402.714 44.5231 404.437 44.0891 405.86 43.2212C407.283 42.3533 408.4 41.1899 409.211 39.7264L416.389 43.2905C415.668 45.0725 414.537 46.6514 413.001 48.0226C411.464 49.3937 409.635 50.4694 407.515 51.245C405.395 52.0252 403.092 52.4176 400.607 52.4176Z" fill="black"/>
<path d="M424.072 51.245V0H432.736V51.245H424.072Z" fill="black"/>
<path d="M440.944 10.1568V0.923431H449.608V10.1568H440.944ZM440.944 51.2451V14.3118H449.608V51.2451H440.944Z" fill="black"/>
<path d="M485.891 65.8752C481.81 65.8752 478.052 65.1782 474.623 63.7839C471.194 62.3897 468.194 60.4091 465.636 57.8469C463.073 55.2846 461.085 52.233 459.676 48.7059C458.262 45.1741 457.56 41.273 457.56 36.998C457.56 32.7691 458.267 28.8911 459.676 25.3594C461.085 21.8276 463.073 18.7898 465.636 16.2507C468.198 13.7115 471.194 11.731 474.623 10.3136C478.052 8.89632 481.787 8.18996 485.827 8.18996C489.908 8.18996 493.62 8.91015 496.967 10.3506C500.309 11.791 503.187 13.79 505.599 16.3568C508.011 18.9191 509.867 21.9569 511.166 25.4655C512.471 28.9742 513.123 32.8199 513.123 37.0026C513.123 39.8834 512.635 42.3903 511.659 44.5278C510.683 46.6653 509.333 48.3042 507.619 49.4538C505.904 50.5987 503.893 51.1758 501.595 51.1758C500.118 51.1758 498.654 50.8711 497.199 50.2663C495.745 49.6569 494.527 48.7243 493.551 47.464C492.576 46.2036 492.042 44.5416 491.956 42.4687L493.456 45.9082C493.064 46.9885 492.37 47.921 491.372 48.7105C490.373 49.4999 489.21 50.1047 487.888 50.5341C486.561 50.9634 485.184 51.1758 483.752 51.1758C481.235 51.1758 478.932 50.5571 476.849 49.3199C474.765 48.0826 473.114 46.3744 471.896 44.1907C470.679 42.0071 470.072 39.5464 470.072 36.8041C470.072 34.1033 470.679 31.6334 471.896 29.3805C473.109 27.1322 474.765 25.3317 476.849 23.9836C478.932 22.6355 481.299 21.9615 483.948 21.9615C486.078 21.9615 487.988 22.377 489.68 23.208C491.372 24.039 492.525 25.1562 493.132 26.5458L492.48 28.8403V22.6217H498.408V39.6941C498.408 41.3146 498.713 42.5518 499.32 43.4059C499.926 44.26 500.752 44.6894 501.796 44.6894C503.187 44.6894 504.24 44.0707 504.956 42.8335C505.672 41.5962 506.032 39.5371 506.032 36.661C506.032 33.5585 505.585 30.687 504.696 28.0555C503.807 25.424 502.503 23.1295 500.788 21.172C499.074 19.2146 496.976 17.6957 494.5 16.6154C492.024 15.5351 489.16 14.9949 485.9 14.9949C482.731 14.9949 479.854 15.5351 477.268 16.6154C474.683 17.6957 472.448 19.2238 470.56 21.2044C468.673 23.1849 467.213 25.5117 466.197 28.1894C465.175 30.867 464.664 33.7802 464.664 36.9287C464.664 40.1696 465.198 43.1474 466.26 45.8712C467.323 48.5951 468.809 50.9449 470.725 52.9209C472.635 54.9014 474.883 56.4296 477.464 57.5098C480.045 58.5902 482.858 59.1303 485.9 59.1303C487.943 59.1303 489.908 58.8718 491.796 58.3547C493.684 57.8376 495.412 57.062 496.976 56.0279L499.972 61.9649C495.882 64.5687 491.189 65.8752 485.891 65.8752ZM484.359 44.7678C485.868 44.7678 487.19 44.4077 488.326 43.6875C489.457 42.9673 490.36 41.9886 491.025 40.7513C491.691 39.5141 492.024 38.1521 492.024 36.6702C492.024 34.3757 491.303 32.4644 489.858 30.9363C488.412 29.4082 486.602 28.6418 484.427 28.6418C482.959 28.5956 481.627 28.9096 480.428 29.5882C479.229 30.2623 478.285 31.2087 477.596 32.4229C476.908 33.637 476.561 35.0313 476.561 36.6056C476.561 38.1337 476.903 39.5187 477.596 40.756C478.285 41.9932 479.22 42.972 480.396 43.6922C481.573 44.4077 482.895 44.7678 484.359 44.7678Z" fill="black"/>
<path d="M536.894 65.8616C534.203 65.8616 531.714 65.4138 529.42 64.5135C527.126 63.6133 525.156 62.3668 523.501 60.7694C521.846 59.172 520.647 57.293 519.899 55.137L527.965 52.0347C528.494 53.7428 529.543 55.1278 531.107 56.185C532.671 57.2423 534.577 57.7732 536.83 57.7732C538.595 57.7732 540.145 57.4362 541.49 56.7621C542.835 56.0881 543.893 55.1094 544.664 53.8259C545.434 52.5425 545.822 51.0051 545.822 49.2046V40.8392L547.386 42.8613C546.169 45.0681 544.55 46.7301 542.53 47.8565C540.51 48.983 538.175 49.5416 535.521 49.5416C532.261 49.5416 529.329 48.7568 526.72 47.1779C524.112 45.6036 522.06 43.443 520.56 40.7007C519.06 37.9584 518.312 34.8745 518.312 31.4582C518.312 27.9957 519.06 24.9117 520.56 22.2156C522.06 19.5148 524.089 17.3912 526.657 15.84C529.219 14.2888 532.133 13.5132 535.389 13.5132C538.038 13.5132 540.364 14.0856 542.366 15.2352C544.363 16.3801 546.036 18.0375 547.386 20.1935L546.278 22.4187V14.3118H554.486V49.1954C554.486 52.3901 553.724 55.2432 552.206 57.7639C550.683 60.2846 548.613 62.2606 545.991 63.701C543.364 65.1414 540.332 65.8616 536.894 65.8616ZM536.611 41.5963C538.476 41.5963 540.108 41.1809 541.508 40.3499C542.908 39.5189 544.007 38.3601 544.81 36.8735C545.608 35.3869 546.009 33.6788 546.009 31.7444C546.009 29.8562 545.599 28.1665 544.778 26.6845C543.957 25.1979 542.844 24.0299 541.444 23.1758C540.045 22.3218 538.435 21.8924 536.611 21.8924C534.787 21.8924 533.145 22.3218 531.677 23.1758C530.213 24.0299 529.069 25.1979 528.243 26.6845C527.423 28.1711 527.012 29.8562 527.012 31.7444C527.012 33.6326 527.423 35.3223 528.243 36.8042C529.064 38.2908 530.2 39.4588 531.641 40.3129C533.091 41.167 534.746 41.5963 536.611 41.5963Z" fill="black"/>
<path d="M562.693 51.2452V14.3118H570.901V22.8665L569.966 21.5092C570.632 18.7946 571.968 16.7817 573.97 15.466C575.972 14.1548 578.329 13.4993 581.047 13.4993C584.029 13.4993 586.656 14.2934 588.922 15.8769C591.193 17.4604 592.661 19.5425 593.327 22.1232L590.855 22.3263C591.968 19.3855 593.637 17.1788 595.862 15.7061C598.087 14.2333 600.646 13.4993 603.536 13.4993C606.117 13.4993 608.42 14.0856 610.445 15.2628C612.469 16.4401 614.061 18.079 615.219 20.1842C616.377 22.2894 616.956 24.7224 616.956 27.4832V51.2452H608.293V29.7223C608.293 28.1018 608.001 26.7076 607.417 25.5396C606.833 24.3715 606.013 23.4713 604.959 22.8388C603.906 22.2109 602.661 21.8924 601.225 21.8924C599.834 21.8924 598.598 22.2063 597.522 22.8388C596.446 23.4713 595.616 24.3669 595.032 25.5396C594.449 26.7076 594.157 28.1018 594.157 29.7223V51.2452H585.493V29.7223C585.493 28.1018 585.201 26.7076 584.617 25.5396C584.034 24.3715 583.213 23.4713 582.16 22.8388C581.106 22.2109 579.861 21.8924 578.425 21.8924C577.034 21.8924 575.799 22.2063 574.722 22.8388C573.646 23.4713 572.816 24.3669 572.233 25.5396C571.649 26.7076 571.357 28.1018 571.357 29.7223V51.2452H562.693Z" fill="black"/>
<path d="M635.379 52.053C632.848 52.053 630.636 51.6237 628.748 50.7696C626.861 49.9155 625.406 48.6875 624.385 47.0947C623.363 45.4974 622.853 43.6415 622.853 41.527C622.853 39.5049 623.309 37.6906 624.221 36.0932C625.132 34.4958 626.519 33.157 628.384 32.0767C630.249 30.9964 632.606 30.2347 635.447 29.7822L647.052 27.8248V34.5743L637.111 36.3979C635.379 36.7119 634.088 37.2658 633.245 38.0507C632.401 38.8401 631.977 39.8835 631.977 41.19C631.977 42.4504 632.456 43.4522 633.409 44.1908C634.362 44.9341 635.552 45.3035 636.975 45.3035C638.794 45.3035 640.408 44.9111 641.808 44.1216C643.208 43.3368 644.284 42.2426 645.041 40.8484C645.798 39.4541 646.135 36.3287 646.135 36.3287V26.8137C646.135 25.2394 645.543 23.9237 644.362 22.8665C643.181 21.8092 641.603 21.2829 639.638 21.2829C637.8 21.2829 636.167 21.8 634.749 22.8341C633.327 23.8683 632.287 25.1979 631.63 26.8137L624.608 23.305C625.306 21.3706 626.414 19.6948 627.923 18.2775C629.432 16.8602 631.215 15.7475 633.272 14.9396C635.328 14.1317 637.558 13.7254 639.966 13.7254C642.898 13.7254 645.479 14.2748 647.713 15.3782C649.943 16.4816 651.685 18.0236 652.93 19.9995C654.179 21.9801 654.799 24.2515 654.799 26.8137V51.2451H646.591V44.9711L648.57 44.9018C647.636 46.4299 646.514 47.7364 645.205 48.8167C643.892 49.897 642.428 50.705 640.805 51.2451C639.191 51.7853 637.38 52.053 635.379 52.053Z" fill="black"/>
<path d="M663.012 10.1568V0.923431H671.676V10.1568H663.012ZM663.012 51.2451V14.3118H671.676V51.2451H663.012Z" fill="black"/>
<path d="M679.883 51.245V0H688.547V51.245H679.883Z" fill="black"/>
<path d="M700.859 51.245V42.0117H709.523V51.245H700.859Z" fill="black"/>
<path d="M739.281 52.053C735.637 52.053 732.395 51.2082 729.55 49.5231C726.704 47.838 724.452 45.5435 722.787 42.6396C721.123 39.7358 720.289 36.4672 720.289 32.82C720.289 29.1775 721.109 25.9135 722.756 23.0373C724.397 20.1611 726.654 17.8851 729.518 16.2231C732.386 14.5611 735.637 13.7254 739.281 13.7254C741.857 13.7254 744.256 14.1871 746.481 15.1104C748.701 16.0338 750.621 17.3034 752.244 18.9238C753.868 20.5443 755.031 22.4325 755.742 24.5931L748.077 28.0325C747.411 26.1443 746.289 24.6485 744.712 23.5451C743.134 22.4417 741.323 21.8923 739.281 21.8923C737.37 21.8923 735.669 22.354 734.183 23.2773C732.692 24.2007 731.529 25.5026 730.685 27.1923C729.842 28.8774 729.418 30.7794 729.418 32.8939C729.418 35.0545 729.837 36.9658 730.685 38.6278C731.529 40.2944 732.696 41.5963 734.183 42.5427C735.669 43.4891 737.37 43.96 739.281 43.96C741.369 43.96 743.179 43.3968 744.712 42.2749C746.244 41.1531 747.365 39.6434 748.077 37.7552L755.742 41.2639C755.031 43.3322 753.877 45.1881 752.276 46.8316C750.676 48.4751 748.765 49.7539 746.545 50.6773C744.324 51.5914 741.903 52.053 739.281 52.053Z" fill="black"/>
<path d="M780.001 52.053C776.49 52.053 773.279 51.222 770.37 49.5554C767.461 47.8934 765.14 45.622 763.407 42.7412C761.675 39.865 760.808 36.578 760.808 32.8892C760.808 29.2005 761.675 25.9181 763.407 23.0373C765.14 20.1611 767.452 17.8851 770.338 16.2231C773.225 14.5611 776.449 13.7254 780.001 13.7254C783.599 13.7254 786.841 14.5564 789.732 16.2231C792.618 17.8897 794.921 20.1472 796.631 23.005C798.341 25.8627 799.198 29.159 799.198 32.8892C799.198 36.578 798.332 39.8604 796.599 42.7412C794.866 45.622 792.554 47.8934 789.668 49.5554C786.777 51.222 783.558 52.053 780.001 52.053ZM780.001 43.9554C781.998 43.9554 783.745 43.4845 785.231 42.5381C786.718 41.5917 787.899 40.2759 788.765 38.5908C789.631 36.9058 790.065 35.0037 790.065 32.8892C790.065 30.7748 789.631 28.8866 788.765 27.22C787.899 25.558 786.722 24.2514 785.231 23.305C783.74 22.3586 781.998 21.8877 780.001 21.8877C778.045 21.8877 776.312 22.3586 774.803 23.305C773.293 24.2514 772.103 25.5534 771.237 27.22C770.37 28.8866 769.937 30.7748 769.937 32.8892C769.937 35.0037 770.37 36.9058 771.237 38.5908C772.103 40.2759 773.293 41.5917 774.803 42.5381C776.312 43.4845 778.045 43.9554 780.001 43.9554Z" fill="black"/>
<path d="M805.737 51.2452V14.3118H813.945V22.8665L813.01 21.5092C813.676 18.7946 815.012 16.7817 817.013 15.466C819.015 14.1548 821.373 13.4993 824.09 13.4993C827.073 13.4993 829.699 14.2934 831.965 15.8769C834.236 17.4604 835.705 19.5425 836.37 22.1232L833.899 22.3263C835.011 19.3855 836.68 17.1788 838.906 15.7061C841.131 14.2333 843.689 13.4993 846.58 13.4993C849.161 13.4993 851.464 14.0856 853.488 15.2628C855.513 16.4401 857.104 18.079 858.262 20.1842C859.421 22.2894 860 24.7224 860 27.4832V51.2452H851.336V29.7223C851.336 28.1018 851.044 26.7076 850.46 25.5396C849.877 24.3715 849.056 23.4713 848.003 22.8388C846.949 22.2109 845.7 21.8924 844.268 21.8924C842.877 21.8924 841.642 22.2063 840.565 22.8388C839.489 23.4713 838.659 24.3669 838.076 25.5396C837.492 26.7076 837.2 28.1018 837.2 29.7223V51.2452H828.536V29.7223C828.536 28.1018 828.245 26.7076 827.661 25.5396C827.077 24.3715 826.256 23.4713 825.203 22.8388C824.15 22.2109 822.905 21.8924 821.469 21.8924C820.078 21.8924 818.842 22.2063 817.766 22.8388C816.69 23.4713 815.86 24.3669 815.276 25.5396C814.693 26.7076 814.401 28.1018 814.401 29.7223V51.2452H805.737Z" fill="black"/>
<path d="M61.5588 57.6149H0V65.297H61.5588V57.6149Z" fill="black"/>
<path d="M449.607 57.9577H93.8794V65.6399H449.607V57.9577Z" fill="black"/>
<path d="M860 57.9577H562.693V65.6399H860V57.9577Z" fill="black"/>
</svg>
