<svg width="20" height="20" viewBox="0 0 20 20" fill="none" xmlns="http://www.w3.org/2000/svg">
<path d="M5.64286 18V10.2497H14.3571V18V18.5H14.8571H18H18.5V18V7.66586C18.5 7.28647 18.3174 6.9148 17.9498 6.66034L17.9496 6.66023L17.9481 6.65917L17.9472 6.65855L10.8073 1.75169C10.8073 1.75167 10.8073 1.75166 10.8073 1.75164C10.3146 1.413 9.66665 1.42114 9.20097 1.74594L9.48701 2.15604L9.20097 1.74594L9.19247 1.75189L9.18962 1.75386L2.05279 6.65854L2.05185 6.65919L2.05017 6.66035L2.05013 6.66038C1.68261 6.91483 1.5 7.28649 1.5 7.66586V18V18.5H2H5.14286H5.64286V18ZM18.5714 19.5H13.3571V11.7497V11.2497H12.8571H7.14286H6.64286V11.7497V19.5H1.42857C0.900831 19.5 0.5 19.0873 0.5 18.625V7.66586C0.5 6.94293 0.856631 6.26922 1.48354 5.83638C1.48369 5.83627 1.48384 5.83617 1.48399 5.83606L8.62605 0.927711L8.62606 0.927721L8.6289 0.925741C9.44153 0.358939 10.5433 0.356594 11.3739 0.927658L11.3739 0.927711L18.516 5.83606C18.5162 5.83618 18.5164 5.83631 18.5165 5.83643C19.1434 6.26928 19.5 6.94296 19.5 7.66586V18.625C19.5 19.0873 19.0992 19.5 18.5714 19.5Z" fill="url(#paint0_radial_203_58)" stroke="url(#paint1_linear_203_58)"/>
<defs>
<radialGradient id="paint0_radial_203_58" cx="0" cy="0" r="1" gradientUnits="userSpaceOnUse" gradientTransform="rotate(45) scale(28.2843 36.2392)">
<stop stop-color="#E2E2E2" stop-opacity="0.5"/>
<stop offset="1" stop-color="white" stop-opacity="0"/>
</radialGradient>
<linearGradient id="paint1_linear_203_58" x1="0" y1="0" x2="23.269" y2="14.8922" gradientUnits="userSpaceOnUse">
<stop stop-color="white" stop-opacity="0.2"/>
<stop offset="1" stop-color="white" stop-opacity="0"/>
</linearGradient>
</defs>
</svg>
