<svg width="20" height="20" viewBox="0 0 20 20" fill="none" xmlns="http://www.w3.org/2000/svg">
<path fill-rule="evenodd" clip-rule="evenodd" d="M10.5241 2.16371C10.2016 1.94202 9.78041 1.9514 9.48701 2.15604L9.47566 2.16396L2.33598 7.07061C2.33557 7.0709 2.33516 7.07118 2.33475 7.07147C2.09831 7.23517 2 7.45514 2 7.66586V18H5.14286V9.74974H14.8571V18H18V7.66586C18 7.45513 17.9017 7.23515 17.6652 7.07144C17.6648 7.07117 17.6644 7.07089 17.664 7.07061L10.5241 2.16371ZM18.8 5.42454C19.5571 5.94706 20 6.77209 20 7.66586V18.625C20 19.3812 19.3571 20 18.5714 20H12.8571V11.7497H7.14286V20H1.42857C0.642857 20 0 19.3812 0 18.625V7.66586C0 6.77209 0.442857 5.94706 1.2 5.42454L8.34286 0.515641C9.32857 -0.17188 10.6571 -0.17188 11.6571 0.515641L18.8 5.42454Z" fill="black"/>
</svg>
