<svg width="48" height="48" viewBox="0 0 48 48" fill="none" xmlns="http://www.w3.org/2000/svg">
<path fill-rule="evenodd" clip-rule="evenodd" d="M7.96875 0H40.0312C44.4323 0 48 3.65921 48 8.17308V39.8269C48 44.3408 44.4323 48 40.0312 48H7.96875C3.56773 48 0 44.3408 0 39.8269V8.17308C0 3.65921 3.56773 0 7.96875 0ZM11.8445 28.7179H19.2828L20.9249 33.615C20.942 33.6871 20.9841 33.7503 21.0434 33.7928C21.1026 33.8354 21.175 33.8543 21.2469 33.8461H25.433C25.6261 33.8463 25.6904 33.7361 25.6261 33.516L18.3168 12.49C18.2949 12.3798 18.2092 12.3248 18.0592 12.3248H12.9393C12.9087 12.3203 12.8775 12.3232 12.8482 12.3333C12.8188 12.3433 12.7922 12.3602 12.7703 12.3826C12.7485 12.4051 12.732 12.4324 12.7222 12.4625C12.7124 12.4926 12.7096 12.5246 12.7139 12.556C12.7126 13.005 12.6695 13.4529 12.5851 13.8935C12.5635 13.9779 12.5422 14.0558 12.5208 14.1292L12.4777 14.2715L12.4563 14.3396L12.392 14.5386L5.95192 33.4827C5.88723 33.725 5.96242 33.8461 6.1773 33.8461L9.97455 33.8463C10.0575 33.8437 10.1374 33.8131 10.2018 33.7594C10.2662 33.7056 10.3116 33.6316 10.331 33.5488L11.8445 28.7179ZM18.0914 24.6446H13.0038C13.073 24.4413 13.1427 24.2342 13.2125 24.0227L13.3527 23.5944L13.4937 23.1552L13.6355 22.7048L13.778 22.2436C13.8258 22.0881 13.8734 21.9306 13.9214 21.7713L14.1865 20.8896L14.7097 19.1588L14.9272 18.4429C15.1579 17.6685 15.3541 16.8837 15.5152 16.091H15.5474L15.7098 16.6961L15.8875 17.3486L16.0522 17.944C16.1995 18.4677 16.3532 18.9894 16.5134 19.509L17.0932 21.3915L17.4048 22.4019L17.732 23.4533L17.9024 24.0102L18.0189 24.399L18.0914 24.6446ZM31.1326 26.8377H37.4759C37.6448 26.8386 37.8139 26.8454 37.9824 26.8581L38.3097 26.8827C38.5255 26.8988 38.7359 26.9119 38.9412 26.9067L39.1488 26.901L39.2487 26.8975L39.4404 26.8892L39.6213 26.8796L39.7917 26.8681L39.9513 26.8552C40.0029 26.8508 40.0525 26.846 40.1004 26.8408L40.2762 26.8229L40.4765 26.8054L40.5622 26.799L40.6722 26.7933L40.7605 26.7913C40.832 26.7913 40.901 26.7644 40.9544 26.7157C41.0078 26.667 41.0419 26.5999 41.0502 26.5271L41.0544 26.4927L41.0722 26.3296L41.1022 26.0077L41.1309 25.6685C41.1629 25.2723 41.179 24.8319 41.179 24.3473C41.1767 23.4952 41.0463 22.6487 40.7926 21.8373C40.5321 20.9954 40.1287 20.2072 39.6012 19.509C39.0388 18.7961 38.3147 18.2352 37.4922 17.8754C36.514 17.4344 35.453 17.2202 34.3848 17.2479C33.0969 17.2479 31.9805 17.4177 31.036 17.8908C30.1036 18.3543 29.2798 19.019 28.621 19.8394C27.9532 20.6694 27.4451 21.622 27.1239 22.6465C26.7903 23.6969 26.6218 24.795 26.6247 25.8996C26.6244 26.9113 26.7653 27.9177 27.043 28.8885C27.3237 29.8719 27.7946 30.7873 28.4277 31.58C29.1054 32.4213 29.9654 33.0885 30.9391 33.5285L31.0366 33.5733C32.0495 34.0277 33.2943 34.255 34.771 34.255C35.7213 34.2703 36.6707 34.1874 37.6047 34.0075C38.2923 33.8922 38.9627 33.6873 39.5997 33.3979C39.6582 33.36 39.7077 33.3092 39.7445 33.2492C39.7816 33.1725 39.7983 33.0871 39.793 33.0015V29.864C39.793 29.666 39.739 29.6113 39.6318 29.699C39.0576 29.9314 38.458 30.0917 37.8462 30.1763C37.1622 30.3182 36.4671 30.3965 35.7693 30.4102C34.8898 30.4294 34.0167 30.2539 33.2094 29.8956C32.6137 29.6382 32.1045 29.2077 31.7444 28.6571C31.4187 28.1012 31.2103 27.4814 31.1326 26.8377ZM35.5175 23.829H31.1326C31.1999 23.3204 31.3467 22.8265 31.5672 22.3658C31.8154 21.8705 32.1987 21.46 32.6705 21.1844C33.1422 20.9087 33.682 20.7798 34.2239 20.8135C34.7997 20.791 35.3667 20.9631 35.8379 21.3032C36.3091 21.6433 36.6583 22.1327 36.832 22.6961C36.9109 22.9415 36.9542 23.1975 36.9607 23.4558V23.6538C36.8184 23.7414 36.6589 23.7956 36.4938 23.8125L36.3093 23.819L36.1449 23.8229L35.891 23.8265L35.5175 23.829Z" fill="white"/>
</svg>
