<svg width="33" height="48" viewBox="0 0 33 48" fill="none" xmlns="http://www.w3.org/2000/svg">
<path d="M26.8132 0.274663C26.8132 0.274663 21.4651 3.66105 18.8974 10.0646C18.8974 10.0646 18.7647 10.0267 18.516 9.99125C18.516 9.99125 16.5039 4.68279 9.14636 5.34287C2.25872 5.95996 -0.120998 13.2031 0.851894 13.9694C1.82479 14.7357 3.68765 12.93 11.0092 12.4874C11.0092 12.4874 9.71296 20.9294 14.0081 22.8211C18.3032 24.7128 22.1947 21.4858 24.0576 18.0387C24.0576 18.0387 26.3682 20.0214 28.372 22.5808C30.3786 25.1402 30.6606 24.7508 31.3101 24.2121C31.9596 23.6734 33.3167 21.3745 32.9297 18.4661C32.5428 15.5577 29.7844 9.0985 20.9786 10.8284C20.9786 10.8284 20.7216 10.6994 20.459 10.6362C20.459 10.6362 22.2362 5.31505 26.2881 1.86796C27.869 0.598381 27.9989 0.44158 27.7971 0.143153C27.5926 -0.152745 27.2084 0.0698108 26.8132 0.274663Z" fill="white"/>
<path d="M24.3588 19.5435C25.1935 20.3401 26.4705 21.6325 27.6285 23.112C26.2051 32.9145 16.3877 43.706 12.0097 46.364C7.42995 49.146 1.18906 50.1095 0.122199 34.6722C-0.676568 23.1069 2.63735 16.8501 4.35097 14.4399C5.63618 14.101 7.39678 13.7115 9.96168 13.489C9.89258 14.3615 9.84283 15.6462 9.96721 17.0195C10.0999 18.4762 10.4039 19.7357 10.871 20.76C11.5012 22.1433 12.4354 23.1145 13.6432 23.6456C14.6244 24.0781 15.636 24.2956 16.6531 24.2956C18.3805 24.2956 20.1245 23.6532 21.6944 22.4342C22.6839 21.6654 23.6015 20.6639 24.3588 19.5435Z" fill="white"/>
</svg>
