<svg width="48" height="48" viewBox="0 0 48 48" fill="none" xmlns="http://www.w3.org/2000/svg">
<g clip-path="url(#clip0_85_607)">
<path fill-rule="evenodd" clip-rule="evenodd" d="M7.96875 0H40.0312C44.4323 0 48 3.65336 48 8.16V39.7632C48 44.2698 44.4323 47.9232 40.0312 47.9232H7.96875C3.56773 47.9232 0 44.2698 0 39.7632V8.16C0 3.65336 3.56773 0 7.96875 0ZM10.8083 12.537V33.6067C10.8083 33.783 10.8833 33.8705 11.0338 33.8705H14.8674C14.9068 33.8763 14.947 33.8726 14.9847 33.8597C15.0225 33.8469 15.0568 33.8252 15.0849 33.7964C15.113 33.7676 15.1342 33.7324 15.1468 33.6938C15.1594 33.6551 15.163 33.614 15.1573 33.5737V26.9952L15.2333 26.9954L15.5745 26.9979L15.8012 27.0027L15.9866 27.0096L16.062 27.0136L16.1861 27.0186L16.392 27.0236L16.5767 27.0263L16.9429 27.0282L17.1896 27.0275C18.7776 27.0161 20.2254 26.8357 21.5329 26.3363L21.6403 26.2959C22.8924 25.8143 23.976 24.9617 24.7528 23.8468C25.5471 22.704 25.9444 21.2533 25.9444 19.4943C25.9473 18.5894 25.7947 17.6909 25.4934 16.8401C25.175 15.9658 24.6752 15.1727 24.0283 14.5154C23.2653 13.7572 22.3468 13.1827 21.3396 12.8339C20.223 12.4163 18.8492 12.2074 17.2179 12.2074C16.6168 12.2074 16.0104 12.2131 15.3988 12.2239L13.6598 12.2569L12.0379 12.292L11.5538 12.3018L11.2054 12.3057L11.0016 12.3062C10.8728 12.3062 10.8083 12.3834 10.8083 12.537ZM15.1575 23.135V16.263L15.1869 16.2589L15.2194 16.2551L15.2931 16.2478L15.3784 16.2409L15.528 16.2315L15.7037 16.223L15.8351 16.2181L16.0883 16.2108L16.4351 16.2038L16.6809 16.2006L16.9386 16.1983L17.3469 16.1971C18.1496 16.1711 18.9491 16.3113 19.6976 16.6092C20.2709 16.8428 20.7599 17.2515 21.0983 17.7798C21.4202 18.326 21.5822 18.9554 21.5653 19.5932L21.5644 19.689C21.5499 20.5448 21.3409 21.2162 20.9374 21.7035C20.5031 22.2199 19.9331 22.5977 19.2951 22.7917L19.1552 22.8365C18.4539 23.0538 17.7255 23.1655 16.9928 23.1681H15.93C15.6722 23.1673 15.4145 23.1563 15.1575 23.135ZM36.621 21.2246C37.2369 21.3679 37.8327 21.5899 38.3944 21.8855C38.4374 21.9074 38.4849 21.9188 38.5329 21.9188C38.581 21.9188 38.6285 21.9074 38.6715 21.8855C38.7358 21.8419 38.7728 21.7665 38.7681 21.6877V18.3575C38.7684 18.2738 38.7578 18.1907 38.7358 18.1102C38.7028 18.0219 38.6314 17.9549 38.5427 17.9288C37.9916 17.6887 37.4107 17.5279 36.8166 17.4507C35.9961 17.3231 35.167 17.2624 34.3371 17.2693C32.9201 17.2696 31.7396 17.5116 30.7952 17.9948C29.9351 18.4015 29.2084 19.0543 28.7021 19.8741C28.2582 20.6188 28.0242 21.4747 28.026 22.3471C28.0161 23.0732 28.1762 23.7911 28.4929 24.4408C28.8586 25.1308 29.3768 25.7237 30.0062 26.1719C30.8862 26.7962 31.8449 27.2953 32.856 27.6557L33.0429 27.7273L33.2216 27.7978L33.3079 27.8323L33.474 27.9005L33.5541 27.9341L33.7078 28.0001L33.7815 28.0328L33.9229 28.0969L33.9904 28.1284L34.119 28.1904L34.2396 28.2511C34.4916 28.3811 34.6853 28.5014 34.8203 28.612C35.1422 28.876 35.3033 29.151 35.3033 29.4363C35.3051 29.6165 35.2559 29.7934 35.1616 29.9455C35.0673 30.0977 34.9319 30.2186 34.7719 30.2936C34.4175 30.4913 33.8648 30.5904 33.1136 30.5904C32.3209 30.5796 31.532 30.4745 30.7629 30.2771C29.8905 30.0758 29.054 29.7365 28.2836 29.2714C28.2593 29.2505 28.2293 29.2378 28.1977 29.2348C28.166 29.2319 28.1343 29.2389 28.1066 29.2549C28.0784 29.2748 28.056 29.3022 28.0418 29.3342C28.0276 29.3661 28.0222 29.4014 28.026 29.4363V33.0301C28.0289 33.1056 28.0512 33.179 28.0908 33.2428C28.1304 33.3065 28.1858 33.3584 28.2514 33.393C28.9037 33.6985 29.5905 33.92 30.2961 34.0525L30.4753 34.0883C31.3133 34.2488 32.1646 34.3252 33.0171 34.3164L33.1599 34.3156C34.5351 34.3012 35.695 34.0817 36.6394 33.6566C37.5412 33.279 38.3181 32.6438 38.8774 31.8269C39.3999 31.022 39.6695 30.0727 39.6503 29.1064C39.6635 28.3748 39.5033 27.6507 39.1834 26.9964C38.8029 26.3051 38.2607 25.7216 37.6054 25.2981C36.6436 24.6721 35.611 24.1683 34.5304 23.7978C34.0458 23.6008 33.5727 23.3751 33.1136 23.122L33.0439 23.0842C32.8137 22.954 32.6082 22.7825 32.4373 22.5779C32.318 22.4286 32.2501 22.2432 32.2442 22.0504C32.2443 21.8516 32.3001 21.6571 32.4051 21.4898C32.5603 21.2807 32.7828 21.1348 33.0332 21.0778C33.4264 20.9681 33.8333 20.918 34.2407 20.9293L34.4143 20.9315C35.1093 20.9463 35.801 21.0339 36.4785 21.1932L36.621 21.2246Z" fill="white"/>
</g>
<defs>
<clipPath id="clip0_85_607">
<rect width="48" height="48" fill="white"/>
</clipPath>
</defs>
</svg>
