<svg width="59" height="48" viewBox="0 0 59 48" fill="none" xmlns="http://www.w3.org/2000/svg">
<g clip-path="url(#clip0_85_610)">
<path d="M30.6913 26.9252C30.8012 24.9591 31.763 23.2267 33.2135 21.9988C34.6362 20.7928 36.5509 20.0555 38.6404 20.0555C40.7275 20.0555 42.6425 20.7928 44.0661 21.9988C45.5157 23.2267 46.4772 24.9591 46.5883 26.9234C46.6985 28.9435 45.8877 30.8204 44.4648 32.2115C43.0142 33.6265 40.9508 34.5145 38.6404 34.5145C36.3299 34.5145 34.2624 33.6265 32.8127 32.2115C31.3891 30.8204 30.5802 28.9435 30.6913 26.9252Z" fill="white"/>
<path d="M18.0708 30.9646C18.0846 31.7354 18.33 33.234 18.6986 34.404C19.4727 36.8808 20.7859 39.1724 22.6133 41.1916C24.4886 43.2674 26.7977 44.9347 29.4651 46.1183C32.2686 47.3615 35.3061 47.9949 38.4613 47.9898C41.6113 47.9855 44.6491 47.3395 47.4525 46.0869C50.1198 44.8918 52.4267 43.2173 54.2991 41.1406C56.1253 39.1129 57.4364 36.8174 58.2129 34.3405C58.6031 33.0891 58.8497 31.8189 58.9485 30.5444C59.0453 29.2871 59.0045 28.023 58.8269 26.7745C58.4793 24.3258 57.633 22.0283 56.3302 19.9338C55.1387 18.0092 53.6028 16.3244 51.7764 14.9061L51.7805 14.9031L33.3499 0.732696C33.3331 0.720234 33.3195 0.70685 33.3018 0.695311C32.0927 -0.234227 30.0591 -0.230997 28.7293 0.700388C27.3847 1.64239 27.2308 3.20031 28.4273 4.1827L28.4223 4.188L36.1096 10.4474L12.6794 10.4723H12.6481C10.7114 10.4746 8.84995 11.7468 8.4812 13.3546C8.10254 14.9926 9.41805 16.3514 11.4317 16.3588L11.4284 16.3659L23.3045 16.3428L2.11242 32.6308C2.08546 32.6506 2.05619 32.6714 2.0313 32.6912C0.0322133 34.224 -0.614021 36.7729 0.64503 38.3857C1.92298 40.026 4.6402 40.029 6.66003 38.3952L18.2259 28.9172C18.2259 28.9172 18.0572 30.1966 18.0708 30.9646ZM47.7909 35.2491C45.4078 37.6802 42.0713 39.0586 38.4615 39.066C34.8461 39.0722 31.5099 37.7061 29.1268 35.2793C27.9623 34.0966 27.107 32.7358 26.5792 31.2863C26.0605 29.8599 25.8609 28.3368 25.9945 26.8246C26.1204 25.3334 26.5638 23.9112 27.2713 22.6242C27.9664 21.3593 28.9238 20.2161 30.1061 19.2492C32.4223 17.3592 35.3716 16.3357 38.456 16.3315C41.5438 16.3274 44.4908 17.3414 46.8095 19.2254C47.9895 20.1879 48.946 21.327 49.6411 22.59C50.358 23.8838 50.7948 25.3142 50.9232 26.7882C51.0548 28.2994 50.8544 29.8212 50.3362 31.2466C49.8075 32.7005 48.9552 34.0613 47.7909 35.2491Z" fill="white"/>
</g>
<defs>
<clipPath id="clip0_85_610">
<rect width="59" height="48" fill="white"/>
</clipPath>
</defs>
</svg>
