<svg width="48" height="48" viewBox="0 0 48 48" fill="none" xmlns="http://www.w3.org/2000/svg">
<path d="M2.004 2.05187H46.0029V45.9481H2.004V2.05187ZM0 48H48V0H0V48ZM31.44 17.1077C31.44 16.9442 31.5 16.8615 31.68 16.8615H34.8206C34.98 16.8615 35.0606 16.9231 35.0606 17.1077V33.2923C35.0606 33.4558 35.0211 33.5385 34.8206 33.5385H31.7229C31.5223 33.5385 31.4623 33.4365 31.4623 33.2712V17.1077H31.44ZM31.2206 12.4519C31.2206 11.897 31.4355 11.3648 31.8181 10.9724C32.2006 10.58 32.7195 10.3596 33.2606 10.3596C33.8016 10.3596 34.3205 10.58 34.7031 10.9724C35.0856 11.3648 35.3006 11.897 35.3006 12.4519C35.3203 12.7353 35.2798 13.0198 35.1817 13.2856C35.0836 13.5514 34.9304 13.7922 34.7326 13.9912C34.5348 14.1902 34.2972 14.3428 34.0362 14.4383C33.7752 14.5337 33.4971 14.5699 33.2211 14.5442C32.9508 14.5616 32.6799 14.519 32.427 14.4194C32.1741 14.3198 31.9451 14.1654 31.7556 13.9669C31.5661 13.7684 31.4205 13.5303 31.3288 13.2688C31.237 13.0074 31.2013 12.7287 31.224 12.4519H31.2206ZM22.2206 23.8576C21.66 21.5719 20.3349 16.6171 19.8411 14.2171H19.8017C19.3817 16.6171 18.3223 20.6787 17.4823 23.8576H22.2206ZM16.6611 27.1807L15.0806 33.3345C15.0411 33.498 14.9811 33.5402 14.7806 33.5402H11.844C11.6434 33.5402 11.604 33.4787 11.6434 33.2325L17.3229 12.8369C17.4611 12.2809 17.5285 11.7088 17.5234 11.1349C17.5234 10.9908 17.5834 10.9292 17.6829 10.9292H21.8829C22.0234 10.9292 22.0834 10.9697 22.1229 11.1349L28.4829 33.2677C28.5223 33.4312 28.4829 33.5349 28.3234 33.5349H25.0029C24.8434 33.5349 24.7423 33.4945 24.7029 33.3591L23.0623 27.1842H16.6629L16.6611 27.1807Z" fill="white"/>
</svg>
