<svg width="47" height="56" viewBox="0 0 47 56" fill="none" xmlns="http://www.w3.org/2000/svg">
<path d="M2.13638 29H44.8636C45.4302 29 46.4659 29 47 29C47 28.6116 47 27.4779 47 26.9286V15.7449C46.5994 15.2767 46.7826 15.4902 46.3858 15.0955L31.4312 0.595544C31.0243 0.210833 31.2443 0.388352 30.7102 8.37516e-06H4.27274C3.13954 8.37516e-06 0.400579 -7.56134e-06 4.20622e-05 4.53226e-06C-4.25175e-06 0.776757 1.50349e-05 3.04411 1.50349e-05 4.14287V26.9286C1.50349e-05 27.4779 -4.51032e-05 27.9642 7.51699e-05 29C0.534102 29 1.56978 29 2.13638 29ZM29.9091 5.17858L41.6591 16.5714H29.9091V5.17858Z" fill="#246EE9"/>
<path d="M0 56V38H7.07969C8.3504 38 9.47259 38.2174 10.4462 38.6523C11.4364 39.0872 12.212 39.7315 12.7731 40.5852C13.3342 41.4389 13.6148 42.494 13.6148 43.7503C13.6148 44.9745 13.326 46.0134 12.7484 46.8671C12.1873 47.7208 11.4117 48.3732 10.4215 48.8242C9.44783 49.2591 8.3339 49.4765 7.07969 49.4765H3.83689V56H0ZM3.83689 46.2148H7.10444C7.64903 46.2148 8.11936 46.1101 8.51543 45.9007C8.91149 45.6913 9.21679 45.4013 9.43133 45.0309C9.66237 44.6604 9.77789 44.2336 9.77789 43.7503C9.77789 43.251 9.66237 42.8161 9.43133 42.4456C9.21679 42.0752 8.91149 41.7852 8.51543 41.5758C8.11936 41.3664 7.64903 41.2617 7.10444 41.2617H3.83689V46.2148Z" fill="#246EE9"/>
<path d="M16.0757 56V38H22.0909C24.0878 38 25.8206 38.3866 27.2893 39.1597C28.7581 39.9329 29.8968 40.996 30.7054 42.349C31.514 43.702 31.9183 45.2483 31.9183 46.9879C31.9183 48.7275 31.514 50.2819 30.7054 51.651C29.8968 53.004 28.7581 54.0671 27.2893 54.8403C25.8206 55.6134 24.0878 56 22.0909 56H16.0757ZM19.9126 52.7383H22.19C23.3947 52.7383 24.4343 52.5047 25.309 52.0376C26.1836 51.5544 26.8602 50.8859 27.3388 50.0322C27.8339 49.1624 28.0814 48.1477 28.0814 46.9879C28.0814 45.8121 27.8339 44.7973 27.3388 43.9436C26.8602 43.0899 26.1836 42.4295 25.309 41.9624C24.4343 41.4953 23.3947 41.2617 22.19 41.2617H19.9126V52.7383Z" fill="#246EE9"/>
<path d="M34.3754 56V38H47V41.2617H38.2123V45.8282H45.7623V49.0899H38.2123V56H34.3754Z" fill="#246EE9"/>
</svg>
