<svg width="41" height="48" viewBox="0 0 41 48" fill="none" xmlns="http://www.w3.org/2000/svg">
<path d="M1.83118 24.8572H38.4546C38.9402 24.8572 39.8279 24.8572 40.2857 24.8572C40.2857 24.5242 40.2857 23.5525 40.2857 23.0816V13.4956C39.9424 13.0944 40.0994 13.2773 39.7593 12.939L26.9411 0.510466C26.5922 0.180714 26.7809 0.332873 26.3231 7.17871e-06H3.66235C2.69104 7.17871e-06 0.343354 -6.48115e-06 3.60534e-05 3.88479e-06C-3.64436e-06 0.665792 1.28871e-05 2.60924 1.28871e-05 3.55103V23.0816C1.28871e-05 23.5525 -3.86599e-05 23.9694 6.44314e-05 24.8571C0.457802 24.8572 1.34553 24.8572 1.83118 24.8572ZM25.6364 4.43879L35.7078 14.2041H25.6364V4.43879Z" fill="#246EE9"/>
<path d="M0 48V32.5714H6.06831C7.15749 32.5714 8.11936 32.7578 8.95393 33.1306C9.80265 33.5033 10.4675 34.0556 10.9484 34.7873C11.4293 35.5191 11.6698 36.4234 11.6698 37.5003C11.6698 38.5496 11.4223 39.4401 10.9272 40.1718C10.4463 40.9035 9.78143 41.4627 8.93272 41.8493C8.09815 42.222 7.14334 42.4084 6.06831 42.4084H3.28877V48H0ZM3.28877 39.6126H6.08952C6.55632 39.6126 6.95946 39.5229 7.29894 39.3434C7.63843 39.1639 7.90011 38.9154 8.084 38.5979C8.28203 38.2803 8.38105 37.9145 8.38105 37.5003C8.38105 37.0723 8.28203 36.6995 8.084 36.382C7.90011 36.0644 7.63843 35.8159 7.29894 35.6364C6.95946 35.4569 6.55632 35.3672 6.08952 35.3672H3.28877V39.6126Z" fill="#246EE9"/>
<path d="M13.7792 48V32.5714H18.9351C20.6467 32.5714 22.1319 32.9028 23.3909 33.5655C24.6498 34.2282 25.6258 35.1394 26.3189 36.2991C27.012 37.4589 27.3586 38.7843 27.3586 40.2753C27.3586 41.7664 27.012 43.0987 26.3189 44.2723C25.6258 45.432 24.6498 46.3432 23.3909 47.0059C22.1319 47.6686 20.6467 48 18.9351 48H13.7792ZM17.0679 45.2042H19.02C20.0526 45.2042 20.9437 45.004 21.6934 44.6036C22.4431 44.1894 23.0231 43.6165 23.4333 42.8847C23.8576 42.1392 24.0698 41.2694 24.0698 40.2753C24.0698 39.2675 23.8576 38.3977 23.4333 37.6659C23.0231 36.9342 22.4431 36.3682 21.6934 35.9678C20.9437 35.5674 20.0526 35.3672 19.02 35.3672H17.0679V45.2042Z" fill="#246EE9"/>
<path d="M29.4646 48V32.5714H40.2857V35.3672H32.7534V39.2813H39.2248V42.0771H32.7534V48H29.4646Z" fill="#246EE9"/>
</svg>
