<svg width="40" height="40" viewBox="0 0 40 40" fill="none" xmlns="http://www.w3.org/2000/svg">
<rect width="40" height="40" rx="4.28571" fill="#246EE9"/>
<path d="M32.6191 34.2858C29.2064 34.2858 25.88 33.5249 22.6398 32.0032C19.3985 30.4826 16.5281 28.472 14.0286 25.9715C11.5281 23.472 9.51753 20.6017 7.9969 17.3604C6.4752 14.1202 5.71436 10.7937 5.71436 7.38102C5.71436 6.90483 5.87309 6.50801 6.19055 6.19055C6.50801 5.87309 6.90483 5.71436 7.38102 5.71436H13.8096C14.18 5.71436 14.5107 5.8334 14.8017 6.0715C15.0927 6.30959 15.2646 6.61383 15.3175 6.9842L16.3493 12.5398C16.4022 12.9101 16.3958 13.2472 16.3302 13.5509C16.2636 13.8556 16.1112 14.1271 15.8731 14.3651L12.0636 18.254C13.1747 20.1588 14.5636 21.9445 16.2302 23.6112C17.8969 25.2778 19.7355 26.7196 21.7461 27.9366L25.4763 24.2064C25.7144 23.9683 26.0255 23.7895 26.4096 23.6699C26.7927 23.5514 27.1694 23.5186 27.5398 23.5715L33.0159 24.6826C33.3863 24.762 33.6905 24.9403 33.9286 25.2175C34.1667 25.4958 34.2858 25.8202 34.2858 26.1905V32.6191C34.2858 33.0953 34.1271 33.4921 33.8096 33.8096C33.4921 34.1271 33.0953 34.2858 32.6191 34.2858Z" fill="white"/>
</svg>
