<svg width="56" height="56" viewBox="0 0 56 56" fill="none" xmlns="http://www.w3.org/2000/svg">
<rect width="56" height="56" rx="6" fill="#246EE9"/>
<path d="M45.6667 48C40.8889 48 36.2319 46.9348 31.6956 44.8044C27.1578 42.6756 23.1393 39.8607 19.64 36.36C16.1393 32.8607 13.3244 28.8422 11.1956 24.3044C9.06519 19.7681 8 15.1111 8 10.3333C8 9.66667 8.22222 9.11111 8.66667 8.66667C9.11111 8.22222 9.66667 8 10.3333 8H19.3333C19.8519 8 20.3148 8.16667 20.7222 8.5C21.1296 8.83333 21.3704 9.25926 21.4444 9.77778L22.8889 17.5556C22.963 18.0741 22.9541 18.5459 22.8622 18.9711C22.7689 19.3978 22.5556 19.7778 22.2222 20.1111L16.8889 25.5556C18.4444 28.2222 20.3889 30.7222 22.7222 33.0556C25.0556 35.3889 27.6296 37.4074 30.4444 39.1111L35.6667 33.8889C36 33.5556 36.4356 33.3052 36.9733 33.1378C37.5096 32.9719 38.037 32.9259 38.5556 33L46.2222 34.5556C46.7407 34.6667 47.1667 34.9163 47.5 35.3044C47.8333 35.6941 48 36.1482 48 36.6667V45.6667C48 46.3333 47.7778 46.8889 47.3333 47.3333C46.8889 47.7778 46.3333 48 45.6667 48Z" fill="white"/>
</svg>
